<?xml version="1.0" standalone="no"?>
<!DOCTYPE svg PUBLIC "-//W3C//DTD SVG 20010904//EN"
 "http://www.w3.org/TR/2001/REC-SVG-20010904/DTD/svg10.dtd">
<svg version="1.0" xmlns="http://www.w3.org/2000/svg"
 width="512.000000pt" height="448.000000pt" viewBox="0 0 512.000000 448.000000"
 preserveAspectRatio="xMidYMid meet">
<metadata>
Created by potrace 1.16, written by Peter Selinger 2001-2019
</metadata>
<g transform="translate(0.000000,448.000000) scale(0.100000,-0.100000)"
fill="#000000" stroke="none">
<path d="M4109 4470 c-350 -43 -643 -281 -757 -616 -28 -80 -42 -171 -42 -265
l0 -76 -219 -142 c-121 -78 -222 -149 -225 -157 -12 -31 -6 -74 13 -93 12 -12
101 -38 277 -81 143 -34 288 -69 324 -78 53 -12 75 -25 119 -64 75 -69 129
-104 234 -153 143 -67 206 -80 387 -80 114 1 171 5 216 18 347 96 598 359 668
699 31 151 17 359 -34 494 -65 175 -193 341 -340 441 -175 119 -417 178 -621
153z m240 -165 c452 -86 725 -554 573 -984 -40 -113 -85 -184 -177 -277 -91
-92 -181 -149 -300 -191 -74 -25 -92 -27 -230 -27 -138 0 -156 2 -230 27 -107
37 -202 95 -284 172 l-67 64 -242 58 c-133 32 -242 61 -242 64 0 4 68 50 150
104 83 53 154 105 159 114 5 9 9 68 9 131 1 82 6 137 21 191 72 278 293 489
576 550 101 22 181 23 284 4z"/>
<path d="M4442 4102 c-10 -7 -12 -110 -10 -483 l3 -474 80 0 80 0 3 474 c2
373 0 476 -10 483 -7 4 -40 8 -73 8 -33 0 -66 -4 -73 -8z"/>
<path d="M4120 3455 l0 -316 83 3 82 3 0 310 0 310 -82 3 -83 3 0 -316z"/>
<path d="M3795 3578 c-3 -13 -4 -115 -3 -228 l3 -205 83 -3 82 -3 -2 228 -3
228 -77 3 c-74 3 -78 2 -83 -20z"/>
<path d="M2195 4349 c-287 -50 -503 -122 -632 -210 -68 -47 -168 -144 -202
-198 -49 -78 -59 -134 -66 -396 l-6 -240 -35 -31 c-34 -31 -34 -32 -28 -95 7
-72 57 -283 80 -338 8 -20 29 -85 45 -144 32 -117 56 -172 100 -228 46 -58 48
-73 33 -213 -16 -141 -23 -163 -59 -172 -33 -8 -46 -32 -89 -160 -22 -66 -46
-120 -59 -132 -12 -11 -116 -59 -232 -107 -451 -186 -756 -340 -881 -442 -18
-15 -36 -77 -95 -330 -40 -172 -70 -315 -67 -318 3 -3 56 -10 119 -15 240 -21
386 -71 817 -276 326 -157 455 -209 608 -249 98 -25 294 -58 302 -51 2 2 -58
88 -132 191 -75 103 -136 193 -136 199 0 9 408 1136 414 1143 4 4 416 -1132
416 -1144 0 -7 -59 -94 -131 -193 -72 -100 -129 -183 -127 -185 7 -8 176 34
308 75 157 50 281 95 615 225 460 179 666 244 834 265 46 5 85 11 86 12 1 2
-31 147 -72 323 -85 362 -71 334 -204 416 -69 41 -323 162 -514 244 -142 61
-453 185 -463 185 -4 0 -22 12 -40 27 -26 22 -42 54 -76 150 -32 91 -51 130
-75 152 l-31 29 0 125 c0 138 17 213 62 279 14 20 47 104 73 185 26 81 58 167
71 190 19 33 27 70 39 183 8 78 15 144 15 146 0 2 -13 17 -30 34 l-30 31 0
218 c0 220 -9 311 -37 366 -25 48 -64 88 -218 221 -166 143 -170 151 -104 208
80 68 35 80 -166 45z m-111 -2586 c-20 -43 -48 -104 -62 -135 l-25 -58 -17 38
c-10 20 -38 81 -63 135 l-46 97 124 0 124 0 -35 -77z"/>
</g>
</svg>
