<?xml version="1.0" standalone="no"?>
<!DOCTYPE svg PUBLIC "-//W3C//DTD SVG 20010904//EN"
 "http://www.w3.org/TR/2001/REC-SVG-20010904/DTD/svg10.dtd">
<svg version="1.0" xmlns="http://www.w3.org/2000/svg"
 width="512.000000pt" height="448.000000pt" viewBox="0 0 512.000000 448.000000"
 preserveAspectRatio="xMidYMid meet">
<metadata>
Created by potrace 1.16, written by Peter Selinger 2001-2019
</metadata>
<g transform="translate(0.000000,448.000000) scale(0.100000,-0.100000)"
fill="#000000" stroke="none">
<path d="M2212 4460 c-231 -50 -424 -160 -597 -341 -160 -167 -273 -384 -311
-599 -19 -110 -19 -330 0 -440 58 -323 272 -624 578 -811 51 -32 216 -103 274
-118 211 -56 437 -56 648 0 58 15 223 86 274 118 306 187 520 488 578 811 19
110 19 330 0 440 -38 215 -151 432 -311 599 -152 159 -344 275 -540 328 -89
23 -122 26 -300 29 -171 3 -214 1 -293 -16z"/>
<path d="M1969 1845 c-119 -17 -179 -32 -294 -71 -89 -31 -225 -89 -265 -114
-8 -5 -40 -24 -70 -42 -92 -53 -241 -172 -320 -253 -41 -43 -92 -95 -113 -116
-21 -22 -36 -39 -32 -39 4 0 -7 -16 -24 -35 -17 -20 -31 -39 -31 -43 0 -4 -12
-21 -28 -37 -15 -17 -28 -37 -30 -45 -2 -8 -10 -22 -18 -31 -8 -8 -14 -21 -14
-27 0 -7 -5 -12 -12 -12 -6 0 -9 -3 -5 -6 3 -3 -2 -14 -11 -25 -9 -11 -15 -21
-14 -22 2 -1 -12 -32 -31 -69 -32 -61 -55 -117 -61 -151 -2 -7 -8 -23 -14 -37
-11 -25 -40 -146 -48 -205 -3 -16 -9 -54 -14 -84 -6 -30 -10 -114 -10 -186 l0
-131 33 -32 33 -32 1905 0 1905 0 32 33 32 33 0 130 c0 72 -4 155 -10 185 -5
30 -11 68 -14 84 -8 59 -37 180 -48 205 -6 14 -12 30 -14 37 -6 34 -29 90 -61
151 -19 37 -34 69 -34 72 1 3 -5 12 -13 22 -8 9 -12 19 -9 22 4 3 1 6 -5 6 -7
0 -12 5 -12 12 0 6 -6 19 -14 27 -8 9 -16 23 -18 31 -2 8 -15 28 -30 45 -16
16 -28 33 -28 37 0 4 -14 23 -31 43 -17 19 -28 35 -24 35 4 0 -11 17 -32 39
-21 21 -72 73 -113 116 -79 81 -228 200 -320 253 -30 18 -62 37 -70 42 -38 23
-173 82 -255 111 -224 79 -320 89 -825 88 -274 -1 -444 -5 -501 -14z"/>
</g>
</svg>
