<?xml version="1.0" standalone="no"?>
<!DOCTYPE svg PUBLIC "-//W3C//DTD SVG 20010904//EN"
 "http://www.w3.org/TR/2001/REC-SVG-20010904/DTD/svg10.dtd">
<svg version="1.0" xmlns="http://www.w3.org/2000/svg"
 width="512.000000pt" height="448.000000pt" viewBox="0 0 512.000000 448.000000"
 preserveAspectRatio="xMidYMid meet">
<metadata>
Created by potrace 1.16, written by Peter Selinger 2001-2019
</metadata>
<g transform="translate(0.000000,448.000000) scale(0.100000,-0.100000)"
fill="#000000" stroke="none">
<path d="M2260 4474 c-381 -67 -610 -150 -905 -325 -242 -143 -542 -438 -706
-694 -168 -260 -268 -524 -329 -865 -25 -135 -28 -537 -6 -670 59 -348 164
-629 335 -895 164 -256 464 -551 706 -694 253 -150 452 -230 735 -293 l145
-33 305 0 305 0 145 33 c283 63 482 143 735 293 242 143 542 438 706 694 171
266 276 547 335 895 22 133 19 535 -6 670 -61 341 -161 605 -329 865 -164 256
-464 551 -706 694 -251 150 -452 230 -730 292 -137 31 -147 32 -425 34 -157 2
-296 1 -310 -1z m621 -896 c79 -36 131 -87 164 -159 23 -53 27 -71 23 -133 -5
-87 -31 -146 -90 -203 -89 -87 -233 -116 -360 -74 -75 25 -152 92 -186 162
-33 68 -31 189 4 255 45 85 98 130 203 170 58 22 175 13 242 -18z m-341 -912
c94 -18 134 -35 188 -82 82 -70 114 -147 113 -276 -1 -136 -18 -213 -128 -588
-64 -217 -86 -324 -87 -422 -1 -109 12 -138 75 -170 48 -25 178 -24 260 2 35
10 64 18 66 17 3 -4 -23 -126 -28 -131 -12 -11 -235 -91 -313 -112 -66 -18
-114 -24 -190 -24 -202 0 -335 65 -401 196 -26 50 -31 73 -34 153 -5 137 -7
125 169 746 36 127 56 279 46 347 -14 90 -72 128 -197 128 -41 0 -88 -9 -131
-24 -38 -13 -68 -22 -68 -20 0 33 37 137 51 144 45 24 262 95 339 111 105 21
173 22 270 5z"/>
</g>
</svg>
