<?xml version="1.0" standalone="no"?>
<!DOCTYPE svg PUBLIC "-//W3C//DTD SVG 20010904//EN"
 "http://www.w3.org/TR/2001/REC-SVG-20010904/DTD/svg10.dtd">
<svg version="1.0" xmlns="http://www.w3.org/2000/svg"
 width="512.000000pt" height="448.000000pt" viewBox="0 0 512.000000 448.000000"
 preserveAspectRatio="xMidYMid meet">
<metadata>
Created by potrace 1.16, written by Peter Selinger 2001-2019
</metadata>
<g transform="translate(0.000000,448.000000) scale(0.100000,-0.100000)"
fill="#000000" stroke="none">
<path d="M425 4445 l-35 -36 2 -1998 3 -1998 47 -95 c62 -124 151 -211 277
-272 l86 -41 1760 0 1760 0 88 42 c124 59 221 156 280 280 l42 88 3 1449 c3
1602 8 1475 -61 1516 -30 19 -53 20 -414 20 l-383 0 0 490 c0 533 1 524 -56
569 l-27 21 -1668 0 -1668 0 -36 -35z m3177 -2117 l3 -1873 26 -70 c15 -38 30
-78 34 -88 7 -16 -60 -17 -1391 -15 l-1399 3 -45 23 c-60 32 -102 73 -131 130
l-24 47 -3 1858 -2 1857 1465 0 1465 0 2 -1872z m858 -525 l-5 -1318 -23 -45
c-52 -99 -133 -152 -244 -158 -56 -4 -76 0 -125 22 -102 47 -152 111 -172 221
-8 40 -11 454 -11 1327 l0 1268 293 0 292 0 -5 -1317z"/>
<path d="M1085 3856 c-16 -7 -41 -26 -55 -41 l-25 -27 0 -523 c0 -511 0 -524
20 -551 11 -15 36 -35 55 -45 33 -18 81 -19 1049 -19 1011 0 1015 0 1058 21
30 15 50 33 64 60 19 38 19 57 17 542 l-3 502 -24 34 c-46 64 10 61 -1108 61
-826 -1 -1024 -3 -1048 -14z m1897 -594 l3 -322 -852 0 -853 0 0 323 0 322
850 0 849 0 3 -323z"/>
<path d="M1062 2400 c-61 -37 -80 -130 -39 -191 49 -74 -25 -69 1107 -69 984
0 1016 1 1058 20 34 15 47 29 63 66 28 62 19 106 -31 156 l-38 38 -1043 0
c-1029 0 -1044 0 -1077 -20z"/>
<path d="M1097 1906 c-49 -18 -67 -34 -84 -73 -30 -73 -2 -151 67 -185 33 -17
104 -18 1050 -18 l1016 0 44 23 c101 52 104 168 6 241 -27 21 -35 21 -1044 23
-833 2 -1024 0 -1055 -11z"/>
<path d="M1058 1375 c-82 -56 -75 -181 14 -235 32 -20 53 -20 1056 -20 1127 0
1067 -3 1112 60 44 62 34 137 -26 190 l-35 30 -1042 0 -1042 0 -37 -25z"/>
<path d="M1113 890 c-18 -4 -44 -15 -59 -24 -58 -38 -70 -151 -23 -203 51 -55
7 -53 1104 -53 1116 0 1060 -3 1106 61 47 66 28 149 -45 203 -27 21 -34 21
-1039 23 -557 1 -1027 -2 -1044 -7z"/>
</g>
</svg>
